<svg width="56" height="60" viewBox="0 0 56 60" fill="none" xmlns="http://www.w3.org/2000/svg">
<g filter="url(#filter0_d)">
<rect y="4" width="50" height="50" rx="12" fill="white"/>
<path d="M7.34375 9L9.82819 44.0079L25.0156 49L40.2029 44.0079L42.6874 9H7.34375Z" fill="#FF7816"/>
<path d="M42.6873 9L40.2029 44.0079L25.0155 49V9H42.6873Z" fill="#FF4B00"/>
<path d="M36.0546 19.625H18.6874L19.1091 25.4844H35.6329L34.6249 39.6717L25.0155 42.8828L15.4061 39.6717L15.0781 34.9375H19.7656L19.8593 36.2266L25.0155 37.9374L30.1718 36.2266L30.5935 30.1719H14.7265L13.6483 14.9375H36.3827L36.0546 19.625Z" fill="#ECECF1"/>
<path d="M35.6329 25.4844L34.6249 39.6717L25.0155 42.8828V37.9374L30.1718 36.2266L30.5935 30.1719H25.0155V25.4844H35.6329Z" fill="#E2E2E7"/>
<path d="M36.3827 14.9375L36.0546 19.625H25.0155V14.9375H36.3827Z" fill="#E2E2E7"/>
</g>
<defs>
<filter id="filter0_d" x="-4" y="0" width="60" height="60" filterUnits="userSpaceOnUse" color-interpolation-filters="sRGB">
<feFlood flood-opacity="0" result="BackgroundImageFix"/>
<feColorMatrix in="SourceAlpha" type="matrix" values="0 0 0 0 0 0 0 0 0 0 0 0 0 0 0 0 0 0 127 0" result="hardAlpha"/>
<feOffset dx="1" dy="1"/>
<feGaussianBlur stdDeviation="2.5"/>
<feColorMatrix type="matrix" values="0 0 0 0 0 0 0 0 0 0 0 0 0 0 0 0 0 0 0.05 0"/>
<feBlend mode="normal" in2="BackgroundImageFix" result="effect1_dropShadow"/>
<feBlend mode="normal" in="SourceGraphic" in2="effect1_dropShadow" result="shape"/>
</filter>
</defs>
</svg>
