<svg xmlns="http://www.w3.org/2000/svg" width="50" height="50" fill="none"><rect width="50" height="50" fill="#fff" rx="12"/><g clip-path="url(#a)"><path fill="#333" d="M31.5 13.5a.2.2 0 0 0-.2.2v5.4a.1.1 0 0 1-.1.2l-1-.6a.4.4 0 0 0-.4 0l-3.5 2-.2.4v4c0 .2 0 .4.2.4l3.5 2a.4.4 0 0 0 .4 0l3.5-2a.4.4 0 0 0 .3-.3V15a.4.4 0 0 0-.3-.4l-2-1.1h-.2ZM9 18.5l-.2.1-3.5 2a.4.4 0 0 0-.2.4v5.5l.1.1a.2.2 0 0 0 .2 0l2-1.2c.2 0 .3-.2.3-.3v-2.6c0-.1 0-.3.2-.3l.9-.5.2-.1h.2l1 .6a.4.4 0 0 1 .1.3v2.6l.2.3 2.1 1.2a.2.2 0 0 0 .2 0 .2.2 0 0 0 .1-.1V21a.4.4 0 0 0-.2-.3l-3.5-2-.2-.1Zm31.5.1h-.2l-3.5 2.1a.4.4 0 0 0-.2.4v4c0 .2 0 .3.2.4l3.5 2h.4l2-1.2c.2 0 .2-.1.2-.2a.2.2 0 0 0-.1-.2l-3.5-2-.1-.2v-1.4l1.2-.7a.2.2 0 0 1 .2 0l1 .7a.2.2 0 0 1 .2.2v1a.2.2 0 0 0 0 .1h.3l2-1.2a.4.4 0 0 0 .3-.3v-1c0-.2 0-.3-.2-.4l-3.5-2h-.2Zm-10.5 3 1.3.8V24l-1.2.7a.1.1 0 0 1-.1 0l-1.2-.7v-1.5l1.2-.7Z"/><path fill="url(#b)" d="M19.5 18.6h-.2l-3.5 2-.2.5v4c0 .2 0 .3.2.4l3.5 2a.4.4 0 0 0 .4 0l3.5-2a.4.4 0 0 0 .3-.4v-4c0-.2-.1-.3-.3-.4l-3.5-2h-.2Zm21 3.6-.7.4v.9l.6.4h.1l.7-.4v-.8l-.7-.5Z"/></g><path fill="#539E44" d="M25 27.5h-.3l-3.4 2c-.2.1-.3.3-.3.6v3.8c0 .3.1.5.3.6l1 .5c.3.2.5.2.7.2.6 0 1-.4 1-1v-3.8h-.6v3.8c0 .3-.4.6-.9.3l-.9-.5v-4l3.3-1.9a.1.1 0 0 1 .1 0l3.3 1.9h.1v4L25 35.9l-.9-.5-.6.2s-.1 0 0 .2l1.2.6a.7.7 0 0 0 .6 0l3.4-1.9c.2-.1.3-.3.3-.6v-3.8c0-.3-.1-.5-.3-.6l-3.4-2H25Z"/><path fill="#539E44" d="M25.9 30.2c-1 0-1.5.4-1.5 1 0 .8.5 1 1.4 1.1 1.1.1 1.2.3 1.2.5 0 .3-.3.5-1 .5-.9 0-1-.2-1.1-.6l-.1-.1h-.5c0 .6.3 1.3 1.7 1.3 1 0 1.7-.4 1.7-1.2 0-.7-.5-.9-1.5-1-1-.1-1.2-.2-1.2-.4s.1-.5.9-.5c.7 0 1 .1 1 .6h.6c0-.8-.6-1.2-1.6-1.2Z"/><defs><linearGradient id="b" x1="21" x2="17.5" y1="19.5" y2="26.5" gradientUnits="userSpaceOnUse"><stop stop-color="#408740"/><stop offset="1" stop-color="#3FA92E"/></linearGradient><clipPath id="a"><path fill="#fff" d="M0 0h40v15H0z" transform="translate(5 13.5)"/></clipPath></defs></svg>